# xmcd
#
# Track frame offsets: 
#        150
#        17951
#        29480
#        43114
#        60273
#        79798
#        98866
#        113139
#        124792
#        137672
#        153957
#        171195
#        191708
#        210290
#        222895
#        236143
#        246331
#
# Disc length: 3499 seconds
#
# Revision: 0
# Processed by: cddbd v1.5.2PL0 Copyright (c) Steve Scherf et al.
# Submitted via: ExactAudioCopyFreeDBPlugin 1.0
#
DISCID=ea0da911
DTITLE=Various Artist - Do Right Men:  A Tribute to Dan Penn and Spoo
DTITLE=ner Oldham
DYEAR=2016
DGENRE=Country
TTITLE0=Buddy Causey - I'm Your Puppet
TTITLE1=Christine Ohlman and Bonnie Bramlett - Cry Like a Baby
TTITLE2=Russell Smith - Dark End of the Street
TTITLE3=Jackson Highway - Battle Cry
TTITLE4=Kate Campbell - A Woman Left Lonely
TTITLE5=The Bramblemen All Stars - You Really Know How to Hurt a Guy
TTITLE6=Sandy Jackson Johnson - Do Right Man, Do Right Woman
TTITLE7=Mark Narmore - I Met Her in Church
TTITLE8=Marc Phillips - Uptight Good Woman
TTITLE9=Jimmy Hall - You Left the Water Running (ft Steve Cropper)
TTITLE10=Donnie Fritts - Out of Left Field
TTITLE11=Ron Williams and Charlie Burgin - Zero Willpower
TTITLE12=Debbie Bond - Sweet Inspiration
TTITLE13=Shonna Tucker - Lonely Women Make Good Lovers
TTITLE14=NMBR11 - Is a Bluebird Blue?
TTITLE15=Travis Wammack - Too Rock For Country, Too Country for Rock a
TTITLE15=nd Roll
TTITLE16=Junior Lowe - Hello Memphis
EXTD=
EXTT0=
EXTT1=
EXTT2=
EXTT3=
EXTT4=
EXTT5=
EXTT6=
EXTT7=
EXTT8=
EXTT9=
EXTT10=
EXTT11=
EXTT12=
EXTT13=
EXTT14=
EXTT15=
EXTT16=
PLAYORDER=
